<?xml version="1.0" encoding="UTF-8"?> <svg xmlns="http://www.w3.org/2000/svg" width="372" height="134" viewBox="0 0 372 134"><g><g><g><g><g><g><path fill="#002169" d="M97.388 126.967c-.276-.553-.967-1.727-2.557-1.727-2.212 0-2.972 1.865-2.972 3.246 0 1.588.968 3.246 2.972 3.246 1.313 0 2.143-.76 2.557-1.658h1.936c-.691 2.003-2.489 3.246-4.493 3.246-2.972 0-4.631-2.417-4.631-4.765 0-2.486 1.797-4.765 4.7-4.765 2.557 0 4.147 1.934 4.493 3.246h-2.005z"></path></g><g><path fill="#002169" d="M105.337 133.32c-3.04 0-4.907-2.555-4.907-4.834 0-2.486 2.074-4.696 4.907-4.696 2.765 0 4.908 2.14 4.908 4.765 0 2.14-1.797 4.765-4.908 4.765zm0-8.01c-1.935 0-3.179 1.588-3.179 3.245s1.313 3.246 3.18 3.246c1.866 0 3.179-1.52 3.179-3.246a3.139 3.139 0 0 0-3.18-3.246z"></path></g><g><path fill="#002169" d="M124.067 133.042v-5.041c0-.76-.07-2.694-2.143-2.694-2.212 0-2.143 1.934-2.143 2.694v5.041h-1.728v-5.041c0-.76 0-1.243-.345-1.865-.415-.621-1.037-.829-1.66-.829-2.28 0-2.28 2.003-2.28 2.694v5.041h-1.728v-9.116h1.59v.967c.345-.345.898-1.243 2.626-1.243 1.106 0 2.35.552 2.834 1.52.277-.484.968-1.52 2.972-1.52 1.52 0 2.627.622 3.18 1.657.345.622.484 1.313.484 2.21v5.456h-1.66z"></path></g><g><path fill="#002169" d="M140.036 133.042v-5.041c0-.76-.07-2.694-2.143-2.694-2.212 0-2.143 1.934-2.143 2.694v5.041h-1.728v-5.041c0-.76 0-1.243-.414-1.865-.415-.621-1.037-.829-1.66-.829-2.28 0-2.28 2.003-2.28 2.694v5.041h-1.728v-9.116h1.59v.967c.345-.345.898-1.243 2.626-1.243 1.106 0 2.35.552 2.834 1.52.277-.484.968-1.52 2.972-1.52 1.52 0 2.627.622 3.18 1.657.345.622.483 1.313.483 2.21v5.456h-1.59z"></path></g><g><path fill="#002169" d="M148.121 131.732c1.244 0 2.212-.76 2.626-1.52h1.728c-.898 2.348-2.972 3.108-4.354 3.108-2.557 0-4.631-2.21-4.631-4.765 0-2.693 2.074-4.765 4.631-4.765 2.488 0 4.63 2.003 4.63 4.627 0 .276-.068.76-.068.898h-7.517c.437 1.677 1.864 2.417 2.955 2.417zm2.903-3.798c-.07-1.313-1.313-2.694-2.903-2.694-1.659 0-2.834 1.312-2.972 2.694z"></path></g><g><path fill="#002169" d="M154.41 133.043v-9.116H156v.829c.69-1.036 1.866-1.036 2.35-1.036v1.726c-.277 0-.83.139-1.244.346-.553.276-.968.967-.968 2.279v4.972z"></path></g><g><path fill="#002169" d="M166.367 126.967c-.277-.553-.968-1.727-2.558-1.727-2.212 0-2.972 1.865-2.972 3.246 0 1.588 1.037 3.246 2.972 3.246 1.244 0 2.143-.76 2.558-1.658h1.866c-.691 2.003-2.488 3.246-4.493 3.246-2.972 0-4.7-2.417-4.7-4.765 0-2.486 1.797-4.765 4.7-4.765 2.557 0 4.147 1.934 4.493 3.246h-1.866z"></path></g><g><path fill="#002169" d="M171.558 120.89h-1.728v2.003h1.728zm0 3.039h-1.728v9.115h1.728z"></path></g><g><path fill="#002169" d="M181.229 131.662c-.692 1.105-1.867 1.657-3.11 1.657-3.042 0-4.839-2.348-4.839-4.765 0-2.21 1.59-4.834 4.838-4.834 1.244 0 2.42.552 3.11 1.52v-1.313h1.729v9.116h-1.728zm-3.11-6.354c-2.074 0-3.111 1.796-3.111 3.246 0 1.658 1.313 3.177 3.11 3.177a3.17 3.17 0 0 0 3.18-3.177c0-1.934-1.383-3.246-3.18-3.246z"></path></g><g><path fill="#002169" d="M186.898 133.044h-1.728V120.89h1.728z"></path></g><g><path fill="#002169" d="M190.768 120.89h-1.728v2.003h1.728zm0 3.039h-1.728v9.115h1.728z"></path></g><g><path fill="#002169" d="M196.574 126.413c-.069-.76-.552-1.105-1.175-1.105-.622 0-1.036.415-1.036.967 0 .76.69.967 1.382 1.174.691.207 2.765.76 2.765 2.97 0 1.588-1.106 2.9-3.041 2.9-1.175 0-3.249-.69-3.249-3.246h1.728c.07 1.036.622 1.658 1.52 1.658.76 0 1.314-.484 1.314-1.243 0-.829-.691-1.105-1.59-1.381-.968-.346-2.557-.83-2.557-2.763 0-1.312 1.106-2.624 2.834-2.624 1.036 0 2.764.622 2.764 2.624h-1.659z"></path></g><g><path fill="#002169" d="M202.102 133.044h-1.728v-7.527h-1.244v-1.588h1.244v-3.039h1.728v3.039h1.52v1.588h-1.52z"></path></g><g><path fill="#002169" d="M206.458 120.89h-1.728v2.003h1.728zm0 3.039h-1.728v9.115h1.728z"></path></g><g><path fill="#002169" d="M220.629 131.662c-.622 1.105-1.867 1.657-3.11 1.657-3.042 0-4.839-2.348-4.839-4.765 0-2.21 1.59-4.834 4.838-4.834 1.244 0 2.42.552 3.11 1.52v-1.313h1.729v9.116h-1.728zm-3.11-6.354c-2.074 0-3.111 1.796-3.111 3.246 0 1.658 1.313 3.177 3.11 3.177a3.17 3.17 0 0 0 3.18-3.177c0-1.934-1.383-3.246-3.18-3.246z"></path></g><g><path fill="#002169" d="M228.165 126.413c-.07-.76-.553-1.105-1.176-1.105-.622 0-1.036.415-1.036.967 0 .76.69.967 1.382 1.174.691.207 2.765.76 2.765 2.97 0 1.588-1.106 2.9-3.041 2.9-1.175 0-3.249-.69-3.249-3.246h1.728c.07 1.036.553 1.658 1.52 1.658.76 0 1.314-.484 1.314-1.243 0-.829-.691-1.105-1.59-1.381-.968-.346-2.557-.83-2.557-2.763 0-1.312 1.106-2.624 2.834-2.624 1.036 0 2.764.622 2.764 2.624h-1.658z"></path></g><g><path fill="#002169" d="M235.144 126.413c-.069-.76-.552-1.105-1.175-1.105-.622 0-1.036.415-1.036.967 0 .76.622.967 1.382 1.174.691.207 2.765.76 2.765 2.97 0 1.588-1.106 2.9-3.041 2.9-1.175 0-3.249-.69-3.249-3.246h1.728c.07 1.036.622 1.658 1.52 1.658.76 0 1.314-.484 1.314-1.243 0-.829-.691-1.105-1.59-1.381-.968-.346-2.557-.83-2.557-2.763 0-1.312 1.106-2.624 2.834-2.624 1.036 0 2.764.622 2.764 2.624h-1.659z"></path></g><g><path fill="#002169" d="M242.957 133.32c-3.04 0-4.907-2.555-4.907-4.834 0-2.486 2.074-4.696 4.907-4.696 2.765 0 4.908 2.14 4.908 4.765 0 2.14-1.866 4.765-4.908 4.765zm0-8.01c-1.935 0-3.179 1.588-3.179 3.245s1.313 3.246 3.18 3.246c1.866 0 3.179-1.52 3.179-3.246 0-1.657-1.313-3.246-3.18-3.246z"></path></g><g><path fill="#002169" d="M256.368 126.967c-.276-.553-.967-1.727-2.557-1.727-2.212 0-2.972 1.865-2.972 3.246 0 1.588 1.037 3.246 2.972 3.246 1.313 0 2.143-.76 2.557-1.658h1.936c-.692 2.003-2.489 3.246-4.493 3.246-2.972 0-4.631-2.417-4.631-4.765 0-2.486 1.797-4.765 4.7-4.765 2.557 0 4.147 1.934 4.493 3.246h-2.005z"></path></g><g><path fill="#002169" d="M261.618 120.89h-1.728v2.003h1.728zm0 3.039h-1.728v9.115h1.728z"></path></g><g><path fill="#002169" d="M271.229 131.662c-.622 1.105-1.867 1.657-3.11 1.657-3.042 0-4.839-2.348-4.839-4.765 0-2.21 1.59-4.834 4.838-4.834 1.244 0 2.42.552 3.11 1.52v-1.313h1.729v9.116h-1.728zm-3.11-6.354c-2.074 0-3.111 1.796-3.111 3.246 0 1.658 1.313 3.177 3.11 3.177a3.17 3.17 0 0 0 3.18-3.177c0-1.934-1.383-3.246-3.18-3.246z"></path></g><g><path fill="#002169" d="M277.172 133.044h-1.728v-7.527H274.2v-1.588h1.244v-3.039h1.728v3.039h1.52v1.588h-1.52z"></path></g><g><path fill="#002169" d="M281.528 120.89H279.8v2.003h1.728zm0 3.039H279.8v9.115h1.728z"></path></g></g><g><g><path fill="#002169" d="M23.024 110.117c-.553 1.243-.76 1.658-1.383 1.658-.553 0-.898-.415-1.313-1.313L8.923 85.947h-.138c-.415 5.662-.83 11.532-.83 16.78 0 8.012.485 8.288 3.388 8.357 1.313 0 2.211.069 2.211.76 0 .76-1.036.76-1.658.76-.83 0-2.696-.208-5.184-.208-2.005 0-4.286.207-5.184.207-.415 0-.968-.069-.968-.69 0-.622.553-.69 2.212-.898 1.935-.276 2.765-.553 2.903-4.144 0-.345 1.175-15.469 1.175-22.167 0-2.487-.138-2.487-2.696-2.556-1.935-.069-2.28-.345-2.28-.897 0-.415.414-.691 1.243-.691.622 0 3.802.207 5.392.207 2.073 0 3.317-.207 4.009-.207.553 0 1.036 0 1.59 1.243l9.745 21.34 9.193-20.787c.76-1.658 1.382-1.796 2.28-1.796 1.245 0 3.526.207 4.77.207 1.244 0 2.834-.207 3.456-.207.622 0 1.451 0 1.451.69 0 .691-.552.691-2.142.76-2.696.138-2.834.829-2.696 3.522l.83 21.754c.069 3.176.138 3.867 2.695 3.867 1.244 0 1.797.207 1.797.76 0 .69-.898.69-1.52.69-.899 0-3.94-.207-6.083-.207-2.903 0-6.013.207-7.12.207-.414 0-1.036-.069-1.036-.69 0-.69.553-.76 2.281-.898 2.627-.207 2.696-1.45 2.627-3.867l-.484-22.1h-.138z"></path></g><g><path fill="#002169" d="M58.197 112.74c-6.566 0-10.437-4.557-10.437-8.77 0-4.281 3.94-8.77 10.23-8.77 4.838 0 10.16 2.831 10.16 8.494 0 4.903-4.147 9.047-9.953 9.047zm-.138-.828c3.11 0 5.737-3.453 5.737-7.872 0-2.556-1.521-7.942-6.152-7.942-3.041 0-5.53 2.693-5.53 7.25 0 4.559 2.558 8.564 5.945 8.564z"></path></g><g><path fill="#002169" d="M89.512 109.216c0 1.105.277 1.313.622 1.313.277 0 1.383-.967 1.728-.967.277 0 .277.345.277.483 0 .967-.07 1.036-2.834 1.865-.415.138-2.558.967-2.903.967-.346 0-.622-.07-.691-1.45 0-.208-.07-.553-.346-.553-.138 0-.415.138-.622.276-1.106.829-2.557 1.726-4.977 1.726-4.769 0-8.916-3.383-8.916-8.356 0-5.8 5.46-9.184 10.23-9.184 1.382 0 2.903.345 3.594.621.138.07.415.138.484.138a.297.297 0 0 0 .276-.276v-3.936c0-1.105-.207-1.45-1.59-1.52-.207-.069-.76-.138-.76-.483 0-.414.622-.553.76-.622.899-.138 2.558-.414 4.839-1.45.069-.069.276-.138.484-.138.483 0 .483.552.483.69 0 .553-.138 3.04-.138 3.592zm-8.225-13.259c-2.903 0-6.013 2.417-6.013 7.32 0 4.213 2.557 7.39 6.773 7.39 3.525 0 3.525-1.45 3.525-2.141v-7.528c0-1.657 0-5.04-4.285-5.04z"></path></g><g><path fill="#002169" d="M99.605 101.276c-.691 0-1.106.07-1.106 2.003 0 4.213 3.11 7.39 7.465 7.39 1.866 0 3.594-.622 4.631-1.52.622-.552.691-.622.898-.622.277 0 .346.208.346.346 0 .552-2.972 3.867-8.294 3.867-5.599 0-9.815-3.246-9.815-8.494 0-5.525 4.7-9.116 10.437-9.116 6.359 0 7.741 4.144 7.741 5.456 0 .69-.484.69-1.175.69zm5.184-1.174c1.797 0 2.903-.828 2.903-1.795 0-2.21-2.903-2.28-3.525-2.28-3.802 0-5.115 3.04-5.115 3.66 0 .415.138.415 1.106.415z"></path></g><g><path fill="#002169" d="M129.39 101.97c0-1.726 0-4.558-4.147-4.558-1.244 0-2.558.415-3.525 1.243-.622.553-.83 1.174-.83 2.072v7.942c0 2.072 0 2.555 1.797 2.762 1.037.138 1.245.277 1.245.622 0 .483-.415.483-.692.483-.622 0-3.594-.138-4.423-.138-.622 0-3.664.138-4.355.138-.345 0-.76 0-.76-.483 0-.345.346-.484 1.244-.622 1.797-.207 1.797-.621 1.797-2.762v-7.182c0-1.796 0-2.555-1.244-2.693-.691-.07-1.106-.07-1.106-.553 0-.207.138-.345.622-.483.277-.07 2.972-1.105 4.286-2.417.276-.277.622-.691.898-.691.346 0 .484.345.484.69v1.865c0 .622 0 .76.138.76.277 0 .484-.138.622-.207 2.558-2.141 3.871-2.625 6.221-2.625 2.765 0 5.806 1.382 5.806 4.835v8.7c0 2.073 0 2.556 1.797 2.763 1.037.138 1.244.276 1.244.622 0 .483-.414.483-.691.483-.622 0-3.732-.138-4.355-.138-.622 0-3.732.138-4.423.138-.277 0-.691 0-.691-.483 0-.346.276-.484 1.244-.622 1.797-.207 1.797-.621 1.797-2.762z"></path></g><g><path fill="#002169" d="M147.983 99.206c0-1.312-.138-3.107-2.143-3.107-2.419 0-3.386 2.279-3.732 3.176-.691 1.658-3.11 1.865-3.18 1.865-.483 0-.898-.276-.898-.76 0-1.243 2.696-5.11 9.055-5.11 3.94 0 4.907 1.174 4.907 2.762v10.29c0 1.174.138 2.072 1.313 2.072a2.39 2.39 0 0 0 1.244-.345c.484-.346.484-.346.692-.346.276 0 .414.208.414.346 0 .897-2.557 2.693-4.423 2.693-1.66 0-2.42-1.105-2.972-2.003-.415-.69-.484-.69-.622-.69-.07 0-.277.138-.277.138-1.797 1.243-4.078 2.624-5.944 2.624-3.11 0-3.318-2.555-3.318-3.177 0-2.762 2.212-4.35 8.71-6.63 1.036-.345 1.036-.69 1.036-1.38v-2.418zm0 5.042c0-.346-.276-.415-.484-.415-.553 0-1.659.484-2.35.76-2.626 1.105-2.626 2.555-2.626 3.315 0 1.795.967 2.486 1.866 2.486 1.866 0 3.525-1.381 3.525-3.937v-2.21z"></path></g><g><path fill="#002169" d="M190.839 86.77c0 .484 0 .898-.691.898-.415 0-.76-.069-1.383-.897-2.073-2.763-4.216-5.18-9.538-5.18-9.47 0-13.824 8.15-13.824 14.71 0 7.182 4.7 15.33 13.41 15.33 5.321 0 7.81-2.83 10.229-6.767.138-.207.553-.967 1.175-.967.83 0 .83.484.83.829l-.346 4.281c-.07.691-.139 1.174-1.383 1.796-.898.483-4.769 2.072-10.575 2.072-14.584 0-20.943-9.945-20.943-16.436 0-7.113 6.912-16.229 21.98-16.229 2.626 0 3.663.138 7.534.69 2.626.415 2.903.898 3.11 2.28z"></path></g><g><path fill="#002169" d="M204.667 112.74c-6.566 0-10.437-4.557-10.437-8.77 0-4.281 3.94-8.77 10.23-8.77 4.838 0 10.16 2.831 10.16 8.494 0 4.903-4.078 9.047-9.953 9.047zm-.138-.828c3.11 0 5.737-3.453 5.737-7.872 0-2.556-1.521-7.942-6.152-7.942-3.041 0-5.53 2.693-5.53 7.25 0 4.559 2.627 8.564 5.945 8.564z"></path></g><g><path fill="#002169" d="M232.1 101.97c0-1.726 0-4.558-4.147-4.558-1.244 0-2.558.415-3.525 1.243-.622.553-.83 1.174-.83 2.072v7.942c0 2.072 0 2.555 1.797 2.762 1.037.138 1.245.277 1.245.622 0 .483-.415.483-.692.483-.622 0-3.663-.138-4.423-.138-.622 0-3.664.138-4.355.138-.345 0-.76 0-.76-.483 0-.345.346-.484 1.244-.622 1.797-.207 1.797-.621 1.797-2.762v-7.182c0-1.796 0-2.555-1.244-2.693-.691-.07-1.106-.07-1.106-.553 0-.207.138-.345.622-.483.277-.07 2.972-1.105 4.286-2.417.276-.277.622-.691.898-.691.415 0 .484.345.484.69v1.865c0 .622 0 .76.138.76a.835.835 0 0 0 .553-.207c2.558-2.141 3.87-2.625 6.22-2.625 2.766 0 5.807 1.382 5.807 4.835v8.7c0 2.073 0 2.556 1.797 2.763 1.037.138 1.244.276 1.244.622 0 .483-.415.483-.691.483-.622 0-3.732-.138-4.424-.138-.622 0-3.732.138-4.423.138-.277 0-.691 0-.691-.483 0-.346.276-.484 1.244-.622 1.797-.207 1.797-.621 1.797-2.762v-6.699z"></path></g><g><path fill="#002169" d="M241.3 107.492c0-.139.068-.691.552-.691.484 0 .691.345.899 1.036.207.69 1.451 3.936 4.838 3.936 1.866 0 4.078-1.105 4.078-3.038 0-2.003-1.935-2.832-4.838-3.868-2.489-.828-5.46-1.933-5.46-4.627 0-2.14 1.865-5.11 7.533-5.11.622 0 3.733.414 4.078.414 1.037.138 1.037.553 1.037 1.105l-.138 2.21c0 .138-.07.622-.484.622-.277 0-.484-.07-.76-.76-.277-.69-1.383-2.693-4.217-2.693-1.797 0-3.386.898-3.386 2.279 0 1.519.898 1.864 5.183 3.384 1.452.552 4.977 1.864 4.977 5.04 0 2.832-2.557 6.009-8.156 6.009-2.557 0-5.184-.967-5.322-1.036-.484-.207-.484-.552-.484-1.45z"></path></g><g><path fill="#002169" d="M272.33 99.546c0-2.071 0-2.486-1.796-2.762-1.037-.138-1.244-.276-1.244-.622 0-.414.414-.414.69-.414.692 0 2.213.138 4.217.138.484 0 .83-.069 1.037-.069.276-.069.415-.069.622-.069.622 0 .622.345.622 1.105v12.016c0 1.589.415 1.658 1.935 1.727.277 0 .691.069.691.345 0 .276-.414.414-.622.484l-4.838 1.174c-.415.138-.76.138-.83.138-.621 0-.621-.484-.621-.691v-1.45c0-.207-.07-.415-.277-.415-.138 0-.345.07-.691.277-2.35 1.588-4.285 2.14-5.875 2.14-1.244 0-5.599-.414-5.599-5.662v-7.528c0-2.14 0-2.555-1.797-2.762-1.037-.138-1.244-.276-1.244-.622 0-.414.415-.414.691-.414.553 0 2.212.138 3.249.138.622 0 1.175-.069 1.659-.069.483-.069.83-.069 1.036-.069.346 0 .622.138.622.552 0 .277-.069.553-.069.83v10.082c0 1.519.692 3.315 4.217 3.315.83 0 4.285 0 4.285-2.694v-8.149z"></path></g><g><path fill="#002169" d="M282.833 92.85c0-1.106 0-2.418-1.52-2.487-.76-.069-.968-.069-.968-.483 0-.345.138-.345 1.382-.622 1.106-.207 2.834-.76 3.663-1.105 1.037-.414 1.106-.483 1.314-.483.483 0 .483.414.483.76 0 .483-.138 2.831-.138 3.245v17.058c0 2.072 0 2.486 1.797 2.762 1.037.138 1.245.277 1.245.622 0 .483-.415.483-.692.483-1.106 0-2.004-.138-4.423-.138-2.765 0-3.318.138-4.147.138-.484 0-.899 0-.899-.483 0-.345.346-.484 1.244-.622 1.797-.207 1.797-.621 1.797-2.693V92.849z"></path></g><g><path fill="#002169" d="M297.356 101.276c-.691 0-1.106.07-1.106 2.003 0 4.213 3.11 7.39 7.465 7.39 1.866 0 3.594-.622 4.63-1.52.623-.552.692-.622.9-.622.276 0 .414.208.414.346 0 .552-2.972 3.867-8.294 3.867-5.599 0-9.815-3.246-9.815-8.494 0-5.525 4.7-9.116 10.437-9.116 6.359 0 7.741 4.144 7.741 5.456 0 .69-.484.69-1.175.69zm5.184-1.174c1.797 0 2.903-.828 2.903-1.795 0-2.21-2.903-2.28-3.525-2.28-3.802 0-5.115 3.04-5.115 3.66 0 .415.138.415 1.106.415z"></path></g><g><path fill="#002169" d="M327.21 101.97c0-1.726 0-4.558-4.147-4.558-1.244 0-2.558.415-3.525 1.243-.622.553-.83 1.174-.83 2.072v7.942c0 2.072 0 2.555 1.797 2.762 1.037.138 1.245.277 1.245.622 0 .483-.415.483-.692.483-.622 0-3.663-.138-4.423-.138-.622 0-3.663.138-4.355.138-.345 0-.76 0-.76-.483 0-.345.346-.484 1.244-.622 1.797-.207 1.797-.621 1.797-2.762v-7.182c0-1.796 0-2.555-1.244-2.693-.691-.07-1.106-.07-1.106-.553 0-.207.138-.345.622-.483.277-.07 2.972-1.105 4.286-2.417.276-.277.622-.691.967-.691.346 0 .484.345.484.69v1.865c0 .622 0 .76.138.76.277 0 .484-.138.622-.207 2.558-2.141 3.871-2.625 6.221-2.625 2.765 0 5.806 1.382 5.806 4.835v8.7c0 2.073 0 2.556 1.797 2.763 1.037.138 1.244.276 1.244.622 0 .483-.414.483-.69.483-.623 0-3.733-.138-4.424-.138-.622 0-3.733.138-4.424.138-.277 0-.691 0-.691-.483 0-.346.276-.484 1.244-.622 1.797-.207 1.797-.621 1.797-2.762z"></path></g><g><path fill="#002169" d="M341.795 110.389c-.346.552-.346.621-.346.76 0 .276.277.276.692.276 7.534 0 7.88-.69 8.916-3.315.07-.207.277-.553.622-.553.484 0 .484.415.484.76l-.138 3.591c-.07.484-.139.69-.83.69-1.59 0-4.216-.137-5.806-.137-3.801 0-6.566.138-8.363.138-.553 0-1.106-.07-1.106-.69 0-.346.207-.692.346-.76l10.23-13.19c.276-.277.414-.553.414-.691 0-.208-.277-.277-1.659-.277-4.424 0-6.013 0-7.741 2.141-.415.553-.622.622-.899.622-.345 0-.415-.207-.415-.415 0-.207.07-.414.07-.552l1.59-4.075c.138-.414.276-.552.621-.552.484 0 .484.276.484 1.036 0 .621.622.69 1.452.69h10.782c.76 0 1.037.07 1.037.415 0 .276-.207.621-.346.76z"></path></g><g><path fill="#002169" d="M364.393 99.206c0-1.312-.138-3.107-2.143-3.107-2.419 0-3.386 2.279-3.732 3.176-.691 1.658-3.11 1.865-3.18 1.865-.483 0-.898-.276-.898-.76 0-1.243 2.627-5.11 9.055-5.11 3.94 0 4.907 1.174 4.907 2.762v10.29c0 1.174.138 2.072 1.313 2.072a2.39 2.39 0 0 0 1.244-.345c.484-.346.484-.346.692-.346.276 0 .345.208.345.346 0 .897-2.557 2.693-4.423 2.693-1.66 0-2.42-1.105-2.973-2.003-.345-.69-.483-.69-.553-.69-.069 0-.276.138-.276.138-1.797 1.243-4.078 2.624-5.944 2.624-3.11 0-3.318-2.555-3.318-3.177 0-2.762 2.212-4.35 8.71-6.63 1.036-.345 1.036-.69 1.036-1.38v-2.418zm0 5.042c0-.346-.276-.415-.484-.415-.622 0-1.659.484-2.35.76-2.626 1.105-2.626 2.555-2.626 3.315 0 1.795.967 2.486 1.866 2.486 1.866 0 3.525-1.381 3.525-3.937v-2.21z"></path></g></g></g><g><g><path fill="#ffd100" d="M217.587 56.461c0 3.453-2.35 6.285-5.322 6.285h-53.913c-2.903 0-5.322-2.832-5.322-6.285V8.534c0-3.453 2.35-6.284 5.322-6.284h53.913c2.903 0 5.322 2.831 5.322 6.284z"></path></g><g><g><g><path fill="#002169" d="M178.05 42.79c-.484 1.726-.76 2.348-1.59 2.486-.76.069-1.313-.415-1.935-1.52L155.448 12.75h-.138c.345 7.597.76 15.47 1.59 22.444 1.243 10.704 2.004 10.98 5.805 10.566 1.797-.207 3.042-.276 3.11.69.139 1.037-1.243 1.175-2.073 1.313-1.106.138-3.663.138-6.912.552-2.695.346-5.668.967-6.912 1.105-.553.07-1.313 0-1.382-.76-.07-.828.622-1.035 2.765-1.588 2.488-.621 3.594-1.174 3.18-5.939-.07-.483-.83-20.787-1.867-29.764-.415-3.315-.553-3.315-4.009-2.97-2.626.208-3.11-.138-3.249-.897-.069-.553.415-.967 1.59-1.105.83-.07 5.046-.277 7.12-.484 2.764-.345 4.354-.76 5.252-.898.76-.069 1.383-.138 2.35 1.382l16.313 26.863 8.916-29.073c.76-2.348 1.59-2.624 2.765-2.763 1.658-.207 4.7-.276 6.428-.483 1.658-.207 3.732-.69 4.561-.829.83-.069 1.936-.207 2.005.69.138.899-.553.968-2.696 1.382-3.594.622-3.663 1.52-3.04 5.11l4.492 28.798c.553 4.212.83 5.18 4.216 4.765 1.59-.207 2.42 0 2.488.76.139.966-1.105 1.105-1.866 1.174-1.175.138-5.253.345-8.087.69-3.801.484-7.948 1.243-9.469 1.381-.553.07-1.382.07-1.451-.69-.139-.967.552-1.105 2.833-1.52 3.525-.69 3.387-2.417 2.903-5.593l-4.078-29.35h-.138z"></path></g><g><path fill="#ffd100" d="M149.572 49.554c-.76 0-1.175-.345-1.244-.898-.139-.966.898-1.243 2.903-1.726 2.419-.622 3.456-1.105 3.11-5.801 0-.069-.07-.69-.07-2.14-.276-5.525-.898-20.304-1.796-27.624-.277-2.555-.484-2.97-1.866-2.97-.484 0-1.175.07-2.005.138-.553.07-1.037.07-1.382.07-1.383 0-1.866-.277-2.005-1.037-.069-.345.07-.621.415-.828.276-.207.76-.346 1.313-.415.346-.069 1.175-.069 2.212-.138 1.659-.138 3.663-.276 4.977-.414a36.396 36.396 0 0 0 3.94-.69c.552-.139.967-.208 1.313-.208.83-.069 1.52-.138 2.488 1.45l16.174 26.588 8.847-28.797c.76-2.418 1.659-2.694 2.903-2.832.83-.069 2.074-.207 3.18-.207 1.174-.07 2.35-.138 3.179-.207a37.846 37.846 0 0 0 2.972-.553c.622-.138 1.244-.276 1.59-.276.276 0 .622-.069.898-.069.277 0 1.175 0 1.314.829.138.967-.623 1.105-2.558 1.45l-.276.069c-3.525.622-3.525 1.45-2.903 4.972l4.492 28.798c.484 3.66.76 4.696 2.834 4.696.346 0 .76 0 1.175-.07.415-.068.76-.068 1.037-.068.691 0 1.52.069 1.659.966.138 1.105-1.175 1.243-2.004 1.382-.484.069-1.314.138-2.42.207-1.728.138-3.94.276-5.667.483-2.35.276-4.77.69-6.705.967a73.645 73.645 0 0 1-2.765.414h-.414c-.899 0-1.175-.483-1.245-.897-.138-1.105.76-1.313 2.973-1.658 3.317-.69 3.248-2.21 2.833-5.455L188.97 8.05l-10.645 34.805c-.484 1.727-.76 2.487-1.728 2.556-.898.138-1.451-.484-2.142-1.589l-19.008-30.73c.346 7.112.691 15.054 1.52 22.167 1.037 8.978 1.66 10.566 4.217 10.566.415 0 .898-.069 1.451-.069.691-.07 1.244-.138 1.66-.138.621 0 1.52.069 1.589.967.069.552-.207.897-.76 1.174-.484.207-1.037.276-1.452.276-.415.069-.968.069-1.728.138-1.313.07-3.11.207-5.184.414-1.59.208-3.318.484-4.7.76-.898.138-1.728.276-2.212.345-.069-.138-.207-.138-.276-.138zm.967-41.435c1.728 0 1.867.76 2.143 3.246.899 7.32 1.52 22.03 1.797 27.623.07 1.243.07 2.072.07 2.141.414 4.972-.761 5.456-3.318 6.146-2.212.553-2.765.76-2.696 1.381.07.415.346.622.899.622h.276c.484-.07 1.313-.207 2.212-.345 1.382-.207 3.11-.553 4.7-.76 2.143-.276 3.94-.345 5.253-.414.76-.07 1.313-.07 1.728-.138.415-.07.968-.139 1.382-.277.484-.207.622-.483.622-.828-.069-.346-.207-.691-1.313-.691-.415 0-.968.07-1.659.138-.553.07-1.037.07-1.52.07-2.765 0-3.456-1.59-4.493-10.774-.83-7.182-1.244-15.331-1.59-22.444v-.138l.415-.07.069.07 19.077 30.938c.691 1.105 1.175 1.52 1.797 1.45.691-.069.898-.552 1.451-2.348l10.783-35.22.415-.069v.138l4.078 29.35c.483 3.315.553 5.042-3.042 5.732-2.419.415-2.834.553-2.764 1.312 0 .277.138.622.898.622h.415c.553-.07 1.52-.207 2.765-.414 1.935-.346 4.354-.691 6.704-.967 1.728-.207 3.94-.345 5.668-.484 1.106-.069 2.004-.138 2.42-.207.967-.138 1.865-.276 1.727-1.036-.069-.345-.207-.69-1.313-.69-.277 0-.622 0-.968.069a8.39 8.39 0 0 1-1.244.069c-2.35 0-2.627-1.243-3.18-4.972l-4.492-28.798c-.484-3.453-.484-4.489 3.317-5.18l.277-.068c2.004-.346 2.42-.484 2.28-1.174-.068-.415-.345-.622-.967-.622-.276 0-.622.07-.83.07-.345.068-.898.137-1.52.275-.898.208-2.004.415-3.041.553-.83.069-2.074.207-3.18.276-1.174.07-2.35.138-3.179.207-1.175.138-1.935.346-2.696 2.625l-9.054 29.419-.138-.277-16.45-26.794c-.9-1.45-1.452-1.382-2.212-1.313-.346.07-.76.139-1.314.208-.967.207-2.211.483-3.94.69-1.244.138-3.317.276-4.976.415-1.037.069-1.866.138-2.212.138-.553.069-.898.207-1.175.345-.207.138-.276.345-.276.552.069.415.207.83 1.658.83.346 0 .83 0 1.383-.07.898-.069 1.59-.138 2.073-.138z"></path></g></g></g><g><g><g><path fill="#fff" d="M223.805 34.64c-.069.69-.138 1.173-1.037 1.035-.552-.069-.967-.207-1.658-1.381-2.35-3.936-4.839-7.32-11.75-8.08-12.373-1.312-19.285 8.84-20.183 17.403-.968 9.392 4.078 20.787 15.551 21.96 6.981.691 10.645-2.693 14.377-7.527.138-.276.899-1.174 1.66-1.105 1.105.138 1.036.69 1.036 1.174l-1.175 5.663c-.138.898-.415 1.52-2.074 2.14-1.313.553-6.566 2.073-14.17 1.313-19.145-2.003-26.126-15.883-25.297-24.378.968-9.323 11.267-20.372 31.035-18.37 3.456.346 4.769.691 9.815 2.003 3.317.898 3.663 1.52 3.801 3.384"></path></g><g><g><path fill="#f4c030" d="M208.532 67.851c-1.383 0-2.834-.069-4.286-.207-10.92-1.105-17.141-6.008-20.39-9.875-3.801-4.489-5.737-10.083-5.253-14.917.968-9.392 10.506-18.922 26.75-18.922 1.52 0 3.11.07 4.7.276 3.386.346 4.63.69 9.4 1.865l.483.138c3.387.898 3.94 1.657 4.078 3.73l.208 4.764c-.07.69-.139 1.588-1.452 1.45-.691-.069-1.244-.345-2.004-1.588-2.42-4.005-4.839-7.182-11.474-7.873-.691-.069-1.383-.138-2.074-.138-7.88 0-16.45 5.94-17.625 17.196-1.037 9.668 4.424 20.372 15.137 21.477.622.07 1.175.07 1.728.07 5.46 0 8.709-2.832 12.303-7.46.346-.483 1.037-1.242 1.866-1.242h.139c1.52.138 1.451 1.174 1.382 1.657l-1.175 5.663c-.207 1.036-.484 1.727-2.28 2.486-1.314.415-5.047 1.45-10.161 1.45z"></path></g><g><path fill="#ffd100" d="M208.537 67.987c-1.382 0-2.834-.07-4.285-.207-10.99-1.105-17.21-6.009-20.528-9.945-3.802-4.489-5.806-10.152-5.253-15.055.967-9.46 10.575-19.06 26.887-19.06 1.52 0 3.11.07 4.7.276 3.387.346 4.63.69 9.4 1.865l.484.138c3.456.898 4.078 1.726 4.216 3.867l.208 4.765v.07c-.07.69-.139 1.726-1.66 1.519-.76-.07-1.313-.346-2.073-1.658-2.419-4.005-4.769-7.113-11.335-7.803-.692-.07-1.383-.139-2.074-.139-7.81 0-16.312 5.87-17.487 17.058-.968 9.6 4.354 20.234 14.999 21.34.622.068 1.175.068 1.728.068 5.391 0 8.64-2.831 12.165-7.39.345-.482 1.106-1.311 2.004-1.311h.138c1.66.138 1.59 1.312 1.521 1.795l-1.175 5.732c-.207 1.036-.484 1.796-2.42 2.555-1.243.484-5.045 1.52-10.16 1.52z"></path></g></g></g></g><g><path fill="#fff" d="M223.805 34.64c-.069.69-.138 1.173-1.037 1.035-.552-.069-.967-.207-1.658-1.381-2.35-3.936-4.839-7.32-11.75-8.08-12.373-1.312-19.285 8.84-20.183 17.403-.968 9.392 4.078 20.787 15.551 21.96 6.981.691 10.645-2.693 14.377-7.527.138-.276.899-1.174 1.66-1.105 1.105.138 1.036.69 1.036 1.174l-1.175 5.663c-.138.898-.415 1.52-2.074 2.14-1.313.553-6.566 2.073-14.17 1.313-19.145-2.003-26.126-15.883-25.297-24.378.968-9.323 11.267-20.372 31.035-18.37 3.456.346 4.769.691 9.815 2.003 3.317.898 3.663 1.52 3.801 3.384"></path></g></g></g><g><g><path fill="#002169" d="M5.416 72.737c0 .951.571 1.141.889 1.141.507 0 .824-.443.824-.824 0-.443-.38-.57-1.65-1.14-.57-.254-2.029-.824-2.029-2.409 0-1.648 1.522-2.535 2.918-2.535 1.142 0 2.791.57 2.791 2.599H7.066c-.064-.254-.127-.824-.761-.824-.381 0-.762.253-.762.633s.254.507 1.713 1.141c1.586.697 1.966 1.395 1.966 2.409 0 1.33-.697 2.661-2.917 2.661-2.157 0-3.045-1.267-2.982-2.915h2.093z"></path></g><g><path fill="#002169" d="M11.19 68.998H9.54V67.16h5.392v1.838h-1.65v6.465h-2.156v-6.465z"></path></g><g><path fill="#002169" d="M17.913 67.157v5.007c0 .253 0 .697.127 1.014.127.317.444.57.952.57.507 0 .824-.253.951-.57.127-.317.127-.697.127-1.078v-5.007h2.157V72.1c0 1.395-.317 2.028-.825 2.535-.57.57-1.269.888-2.347.888-.634 0-1.713-.127-2.41-.888-.698-.76-.825-1.33-.825-2.598V67.03h2.093z"></path></g><g><path fill="#002169" d="M23.68 67.16h2.791c.952 0 2.6 0 3.68 1.584.57.761.76 1.648.76 2.599 0 2.282-1.141 4.183-4.313 4.183H23.68zm2.981 6.465c1.586 0 2.03-1.078 2.03-2.282 0-.444-.127-1.077-.38-1.521-.254-.38-.698-.76-1.65-.76h-.951v4.563z"></path></g><g><path fill="#002169" d="M31.99 67.16h2.157v8.303H31.99z"></path></g><g><path fill="#002169" d="M35.29 71.406c0-2.725 2.093-4.436 4.377-4.436 2.6 0 4.377 2.028 4.377 4.31 0 2.345-1.84 4.31-4.44 4.31-2.538.063-4.314-2.029-4.314-4.184zm2.157-.126c0 1.267.888 2.471 2.283 2.471 1.523 0 2.22-1.394 2.22-2.471 0-1.078-.76-2.472-2.283-2.472-1.46.063-2.22 1.33-2.22 2.472z"></path></g></g></g></g></svg> 